<?xml version="1.0" encoding="UTF-8"?>
<svg id="Capa_1" data-name="Capa 1" xmlns="http://www.w3.org/2000/svg" viewBox="0 0 622.41 581.54">
  <defs>
    <style>
      .cls-1 {
        fill: #56b897;
      }
    </style>
  </defs>
  <path class="cls-1" d="M110.71,76.34l6.4,26.24,67.44-15.47c6.1.54,7.69,3.81,9.29,9.07,2.13,7,8.38,33.2,7.69,39.23-.32,2.81-1.13,4.66-3.57,6.19l-69.73,16.25,4.96,25.84,73.94-16.32c6.12-.73,10.23-.9,12.69,5.37,2.67,6.82,7.86,30.47,8.79,38.08s-.6,10.66-7.78,13.21l-65.22,14.38,5.75,25.79c79.22,1.91,147.55,61.39,156.24,140.83,16.93,154.84-180.3,239.37-279.68,120.5-65.17-77.96-43.73-192.66,44.3-241.8L30.86,44.3c-1.36-6.24,2.13-12.09,8.33-13.63L174.93.39c5.63-1.2,10.22.25,12.25,5.76,2.92,7.92,8.15,31.97,9.21,40.61.75,6.15-.86,10.08-7.13,11.9l-78.54,17.67ZM231.72,423.14c0-40.06-32.47-72.53-72.53-72.53s-72.53,32.47-72.53,72.53,32.47,72.53,72.53,72.53,72.53-32.47,72.53-72.53Z"/>
  <path d="M524.75,409.3c2.5,22.66,35.79,22.22,38.96-.6.52-3.72-.74-7.66,1.08-11.11-4.27,1.59-6.89,5.1-11.5,6.55-33.32,10.46-62.59-26.4-46.97-57.71,8.52-17.09,29.28-28.49,48-21.88,4.01,1.42,6.73,4.12,10.47,5.63-1.27-1.21-1.56-7.8.49-7.8h19.53l1.46,1.46v84.96c0,2.54-2.61,10.11-3.73,12.87-15.82,38.9-77.55,30.34-78.3-12.38h20.51ZM564.3,364.14c0-11.24-9.11-20.36-20.36-20.36s-20.36,9.11-20.36,20.36,9.11,20.36,20.36,20.36,20.36-9.11,20.36-20.36Z"/>
  <path d="M443.41,364.53c0,22.93-18.59,41.52-41.52,41.52s-41.52-18.59-41.52-41.52,18.59-41.52,41.52-41.52,41.52,18.59,41.52,41.52ZM423.13,364.52c0-11.74-9.52-21.26-21.26-21.26s-21.26,9.52-21.26,21.26,9.52,21.26,21.26,21.26,21.26-9.52,21.26-21.26Z"/>
  <path d="M472.02,322.38v13.67c2.27-1.18,2.65-3.91,4.37-5.88,6.91-7.92,13.82-8.43,23.95-7.79v23.44c-11.26-2.2-24.75,7.11-27.12,18.29-2.88,13.61,1.23,26.87-.18,38.89-.17,1.42-.12,2.51-1.51,3.37h-21.97v-83.98h22.46Z"/>
  <rect x="330.42" y="382.93" width="24.41" height="23.44"/>
  <g>
    <path d="M422.22,129.03h-45.9c1.59-29.95-34.88-33.65-57-30.14-12.43,1.97-30.69,9.45-23.58,25.26,7.28,16.17,46.1,17.41,61.84,21.17,26.98,6.44,56.76,22.75,63.2,52.03,19.25,87.51-136.82,106.12-167.69,28.04-1.42-3.59-4.71-13.41-4.71-16.78v-14.16l43.99.48c1.47,4.44.83,8.46,2.42,13.17,8.3,24.51,61.31,27.66,76.53,12.13,16.16-16.5-8.75-27.8-22.35-31.16-20.21-4.99-39.38-4.48-59.26-13-63-27-52.04-104.6,13.17-119.98,54.52-12.86,118.92,8.93,119.32,72.94Z"/>
    <path d="M488.62,62.62v126.46c0,22.01,27.65,39.91,48.23,37.49,14.69-1.73,37.7-18.71,37.7-34.56V62.62h47.85v130.37c0,20.65-17.1,47.43-32.74,60.03-59.17,47.67-144.72,7.43-148.94-66.83l.04-123.58h47.85Z"/>
  </g>
</svg>